<?xml version="1.0" encoding="UTF-8"?>
<svg width="20px" height="20px" viewBox="0 0 20 20" version="1.1" xmlns="http://www.w3.org/2000/svg" xmlns:xlink="http://www.w3.org/1999/xlink">
    <!-- Generator: Sketch 63.1 (92452) - https://sketch.com -->
    <title>help_normal</title>
    <desc>Created with Sketch.</desc>
    <g id="help_normal" stroke="none" stroke-width="1" fill="none" fill-rule="evenodd">
        <g id="Group-20">
            <circle id="Oval" stroke="#B3B3B3" fill="#F5F7FA" cx="10" cy="10" r="9.5"></circle>
            <path d="M10.816,12.8 L10.816,12.576 C10.816,12.192 10.896,11.856 11.056,11.536 C11.2,11.248 11.408,10.976 11.696,10.736 C12.464,10.064 12.928,9.632 13.072,9.472 C13.456,8.96 13.664,8.304 13.664,7.504 C13.664,6.528 13.344,5.76 12.704,5.2 C12.064,4.624 11.216,4.352 10.176,4.352 C8.992,4.352 8.064,4.688 7.376,5.36 C6.672,6.032 6.336,6.96 6.336,8.144 L8.16,8.144 C8.16,7.472 8.288,6.944 8.56,6.576 C8.864,6.128 9.36,5.92 10.064,5.92 C10.608,5.92 11.04,6.064 11.344,6.368 C11.632,6.672 11.792,7.088 11.792,7.616 C11.792,8.016 11.648,8.4 11.36,8.752 L11.168,8.976 C10.128,9.904 9.504,10.576 9.296,11.008 C9.072,11.44 8.976,11.968 8.976,12.576 L8.976,12.8 L10.816,12.8 Z M9.888,16 C10.24,16 10.528,15.888 10.768,15.664 C11.008,15.44 11.136,15.136 11.136,14.784 C11.136,14.432 11.008,14.144 10.784,13.92 C10.544,13.696 10.24,13.584 9.888,13.584 C9.536,13.584 9.248,13.696 9.008,13.92 C8.768,14.144 8.656,14.432 8.656,14.784 C8.656,15.136 8.768,15.424 9.008,15.648 C9.248,15.872 9.536,16 9.888,16 Z" id="？" fill="#B3B3B3" fill-rule="nonzero"></path>
        </g>
    </g>
</svg>