<?xml version="1.0" encoding="UTF-8"?>
<svg width="20px" height="20px" viewBox="0 0 20 20" version="1.1" xmlns="http://www.w3.org/2000/svg" xmlns:xlink="http://www.w3.org/1999/xlink">
    <!-- Generator: Sketch 61.2 (89653) - https://sketch.com -->
    <title>06删除</title>
    <desc>Created with Sketch.</desc>
    <g id="06删除" stroke="none" stroke-width="1" fill="none" fill-rule="evenodd">
        <g id="Group-2">
            <rect id="Rectangle" x="0" y="0" width="20" height="20"></rect>
            <path d="M15,7 C15.7402524,7 16.3865739,7.40216612 16.7323937,7.99992752 L17,8 L17,16 C17,17.1045695 16.1045695,18 15,18 L5,18 C4.2601625,18 3.61415066,17.5982846 3.26818814,17.0010775 L3,17 L3,8 L3.26760632,7.99992752 C3.61342606,7.40216612 4.25974756,7 5,7 L15,7 Z M15,9 L5,9 L5,16 L15,16 L15,9 Z M8,10 L8,15 L6,15 L6,10 L8,10 Z M11,10 L11,15 L9,15 L9,10 L11,10 Z M14,10 L14,15 L12,15 L12,10 L14,10 Z M3,6 C2.44771525,6 2,5.55228475 2,5 C2,4.44771525 2.44771525,4 3,4 L9,4 L9,3 C9,2.44771525 9.44771525,2 10,2 C10.5522847,2 11,2.44771525 11,3 L11,4 L17,4 C17.5522847,4 18,4.44771525 18,5 C18,5.55228475 17.5522847,6 17,6 L3,6 Z" id="Combined-Shape" fill="#FF8989"></path>
        </g>
    </g>
</svg>