<?xml version="1.0" encoding="UTF-8"?>
<svg width="20px" height="20px" viewBox="0 0 20 20" version="1.1" xmlns="http://www.w3.org/2000/svg" xmlns:xlink="http://www.w3.org/1999/xlink">
    <!-- Generator: Sketch 61.2 (89653) - https://sketch.com -->
    <title>07添加删除权限</title>
    <desc>Created with Sketch.</desc>
    <g id="07添加删除权限" stroke="none" stroke-width="1" fill="none" fill-rule="evenodd">
        <g id="Group">
            <rect id="Rectangle-2" x="0" y="0" width="20" height="20"></rect>
            <circle id="Oval" stroke="#3E8CF6" cx="10.5" cy="10.5" r="8"></circle>
            <path d="M10.5,7 C10.7761424,7 11,7.22385763 11,7.5 L11,10 L13.5,10 C13.7761424,10 14,10.2238576 14,10.5 C14,10.7761424 13.7761424,11 13.5,11 L11,11 L11,13.5 C11,13.7761424 10.7761424,14 10.5,14 C10.2238576,14 10,13.7761424 10,13.5 L10,11 L7.5,11 C7.22385763,11 7,10.7761424 7,10.5 C7,10.2238576 7.22385763,10 7.5,10 L10,10 L10,7.5 C10,7.22385763 10.2238576,7 10.5,7 Z" id="Combined-Shape" fill="#3E8CF6"></path>
        </g>
    </g>
</svg>