<?xml version="1.0" encoding="UTF-8"?>
<svg width="20px" height="20px" viewBox="0 0 20 20" version="1.1" xmlns="http://www.w3.org/2000/svg" xmlns:xlink="http://www.w3.org/1999/xlink">
    <!-- Generator: Sketch 61.2 (89653) - https://sketch.com -->
    <title>03升级</title>
    <desc>Created with Sketch.</desc>
    <g id="03升级" stroke="none" stroke-width="1" fill="none" fill-rule="evenodd">
        <g id="Group-4-Copy">
            <rect id="Rectangle" x="0" y="0" width="20" height="20"></rect>
            <path d="M10.0479738,4 C10.6002585,4 11.0479738,4.44771525 11.0479738,5 L11.047,13 L13.757408,13 C14.3096927,13 14.757408,13.4477153 14.757408,14 C14.757408,14.3336243 14.5910299,14.6452749 14.313819,14.8309072 L9.5813071,18 L5.39230071,14.7941278 C4.95371606,14.4584762 4.87027227,13.8308338 5.20592379,13.3922492 C5.39513925,13.1450076 5.68871432,13 6.00005156,13 L9.047,13 L9.04797376,5 C9.04797376,4.44771525 9.49568901,4 10.0479738,4 Z" id="Combined-Shape-Copy" fill="#49D66A" transform="translate(9.878704, 10.655728) scale(1, -1) translate(-9.878704, -10.655728) "></path>
        </g>
    </g>
</svg>