<?xml version="1.0" encoding="UTF-8"?>
<svg width="20px" height="20px" viewBox="0 0 20 20" version="1.1" xmlns="http://www.w3.org/2000/svg" xmlns:xlink="http://www.w3.org/1999/xlink">
    <!-- Generator: Sketch 61.2 (89653) - https://sketch.com -->
    <title>02普通用户</title>
    <desc>Created with Sketch.</desc>
    <g id="02普通用户" stroke="none" stroke-width="1" fill="none" fill-rule="evenodd">
        <g id="Group-5-Copy-3">
            <g id="Group-7">
                <rect id="Rectangle" x="0" y="0" width="20" height="20"></rect>
                <path d="M9.46917498,10 L13.6814752,12.284813 C14.4939731,12.7255237 15,13.5756739 15,14.5 L15,14.8 C15,15.4627417 14.4627417,16 13.8,16 L5.2,16 C4.5372583,16 4,15.4627417 4,14.8 L4,14.5 C4,13.5749786 4.50411822,12.7234766 5.31514003,12.2786078 L9.46917498,10 Z M9.6,4 C10.9254834,4 12,5.0745166 12,6.4 L12,7.6 C12,8.9254834 10.9254834,10 9.6,10 L9.4,10 C8.0745166,10 7,8.9254834 7,7.6 L7,6.4 C7,5.0745166 8.0745166,4 9.4,4 L9.6,4 Z" id="Combined-Shape-Copy-6" fill="#C5CCC6"></path>
            </g>
        </g>
    </g>
</svg>