<?xml version="1.0" encoding="UTF-8"?>
<svg width="1440px" height="120px" viewBox="0 0 1440 120" version="1.1" xmlns="http://www.w3.org/2000/svg" xmlns:xlink="http://www.w3.org/1999/xlink">
    <!-- Generator: Sketch 63.1 (92452) - https://sketch.com -->
    <title>波浪</title>
    <desc>Created with Sketch.</desc>
    <defs>
        <rect id="path-1" x="0" y="0" width="1440" height="120"></rect>
    </defs>
    <g id="波浪" stroke="none" stroke-width="1" fill="none" fill-rule="evenodd">
        <g id="Rectangle-+-Rectangle-Copy-3-+-Rectangle-Copy-2-Mask">
            <mask id="mask-2" fill="white">
                <use xlink:href="#path-1"></use>
            </mask>
            <g id="Mask"></g>
            <path d="M-0.0389446998,102.10049 C95.3374389,102.268427 166.751507,99.3386265 214.20326,93.3110877 C313.762009,80.6646798 365.976813,46 537.010908,46 C808.676342,46 980.560742,113.205789 1113.68972,113.205789 C1246.8187,113.205789 1320.52484,83.4767504 1424.37942,83.4767504 C1493.61581,83.4767504 1559.80968,99.6846637 1622.96106,132.10049 L1622.96106,179.10049 L-0.0389446998,180.10049 L-0.0389446998,102.10049 Z" id="Rectangle" fill="#FFFFFF" opacity="0.30841" mask="url(#mask-2)"></path>
            <path d="M-92,111.789403 C237.121366,75.2631342 487.492453,57 659.113261,57 C916.544473,57 1098.75846,123.894701 1224.91199,123.894701 C1351.06552,123.894701 1420.90975,94.1656627 1519.32275,94.1656627 C1584.93141,94.1656627 1647.65699,110.373576 1707.49947,142.789403 L1707.49947,189.789403 L-92,189.789403 L-92,111.789403 Z" id="Rectangle-Copy-3" fill="#FFFFFF" opacity="0.204310826" mask="url(#mask-2)" transform="translate(807.749734, 123.394701) scale(-1, 1) translate(-807.749734, -123.394701) "></path>
            <path d="M-139,109.789403 C23.4140944,72.5964675 194.674132,54 374.780113,54 C644.939084,54 836.16198,120.894701 968.552719,120.894701 C1100.94346,120.894701 1174.24088,91.1656627 1277.51956,91.1656627 C1346.37201,91.1656627 1412.19882,107.373576 1475,139.789403 L1475,186.789403 L-139,187.789403 L-139,109.789403 Z" id="Rectangle-Copy-2" fill="#FFFFFF" opacity="0.19687035" mask="url(#mask-2)"></path>
        </g>
    </g>
</svg>