<?xml version="1.0" encoding="UTF-8"?>
<svg width="20px" height="20px" viewBox="0 0 20 20" version="1.1" xmlns="http://www.w3.org/2000/svg" xmlns:xlink="http://www.w3.org/1999/xlink">
    <!-- Generator: Sketch 61.2 (89653) - https://sketch.com -->
    <title>05help_1@svg</title>
    <desc>Created with Sketch.</desc>
    <g id="05help_1" stroke="none" stroke-width="1" fill="none" fill-rule="evenodd">
        <path d="M11.0650888,12.8529214 C11.0703485,12.458921 11.1045365,12.1683456 11.1676529,11.9811954 C11.2675871,11.6856951 11.4700855,11.4271323 11.7751479,11.2055071 L11.7751479,11.2055071 L12.3353057,10.7991941 C12.9033531,10.3854936 13.287311,10.0456682 13.4871795,9.77971793 C13.8290598,9.34139243 14,8.80210432 14,8.16185359 C14,7.11775241 13.6068376,6.32975151 12.8205128,5.79785091 C12.034188,5.2659503 11.0466798,5 9.85798817,5 C8.95332018,5 8.19066404,5.18715021 7.57001972,5.56145064 C6.58645628,6.1475263 6.06311637,7.14237743 6,8.54600403 L6,8.54600403 L8.2800789,8.54600403 C8.2800789,8.13722857 8.40762656,7.74322812 8.66272189,7.36400269 C8.91781723,6.98477726 9.35042735,6.79516454 9.96055227,6.79516454 C10.5811966,6.79516454 11.008547,6.94907096 11.2426036,7.25688381 C11.4766601,7.56469666 11.5936884,7.9057533 11.5936884,8.28005373 C11.5936884,8.6051041 11.4884944,8.90306694 11.2781065,9.17394224 C11.1623932,9.33154242 11.0098619,9.47683009 10.8205128,9.60980524 L10.8205128,9.60980524 L10.2445759,10.0308932 C9.6765286,10.4445937 9.32412886,10.8102754 9.18737673,11.1279382 C9.05062459,11.4456011 8.96646943,12.0205955 8.93491124,12.8529214 L8.93491124,12.8529214 L11.0650888,12.8529214 Z M11.2307692,16 L11.2307692,13.8650101 L8.87968442,13.8650101 L8.87968442,16 L11.2307692,16 Z" id="?" fill="#90919D" fill-rule="nonzero"></path>
        <circle id="Oval" stroke="#90919D" stroke-width="2" cx="10" cy="10" r="9"></circle>
    </g>
</svg>