<?xml version="1.0" encoding="UTF-8"?>
<svg width="110px" height="40px" viewBox="0 0 110 40" version="1.1" xmlns="http://www.w3.org/2000/svg" xmlns:xlink="http://www.w3.org/1999/xlink">
    <!-- Generator: Sketch 63.1 (92452) - https://sketch.com -->
    <title>Artboard</title>
    <desc>Created with Sketch.</desc>
    <defs>
        <linearGradient x1="43.8943355%" y1="13.9349747%" x2="56.9050949%" y2="84.2213369%" id="linearGradient-1">
            <stop stop-color="#4987FF" offset="0%"></stop>
            <stop stop-color="#21CCBD" offset="100%"></stop>
        </linearGradient>
    </defs>
    <g id="Artboard" stroke="none" stroke-width="1" fill="none" fill-rule="evenodd">
        <g id="Group" transform="translate(-3.000000, 0.000000)">
            <path d="M40.470976,31.2156937 L40.470976,16.8549213 L43.2076023,16.8549213 L43.2076023,13.2842755 L33.0169272,13.2842755 L33.0169272,16.8549213 L35.8056797,16.8549213 L35.8056797,31.2156937 L40.470976,31.2156937 Z M46.9867529,31.2417568 C47.5601413,31.2417568 48.0249334,31.1461921 48.3811292,30.9550626 C48.737325,30.7639332 49.0631139,30.4424882 49.3584957,29.9907276 L49.2803064,31.2156937 L53.3982775,31.2156937 L53.3982775,16.5161009 L49.3584957,16.5161009 L49.3584957,27.6450479 C49.3584957,27.992556 49.3411203,28.2358117 49.3063695,28.374815 C49.2194925,28.7049476 49.0196753,28.870014 48.706918,28.870014 C48.4984132,28.870014 48.3550661,28.7874808 48.2768768,28.6224145 C48.1986874,28.4573481 48.1595928,28.2097486 48.1595928,27.8796159 L48.1595928,16.5161009 L44.093748,16.5161009 L44.093748,27.175912 C44.093748,28.1489347 44.1371865,28.8830456 44.2240635,29.3782446 C44.3109405,29.8734436 44.5281331,30.3121726 44.8756412,30.6944315 C45.1015215,30.9376872 45.3534648,31.089722 45.6314713,31.1505359 C45.9094778,31.2113498 46.2569859,31.2417568 46.6739956,31.2417568 L46.9867529,31.2417568 Z M60.0183068,31.293883 C62.2944849,31.293883 63.8495837,30.8508102 64.6836031,29.9646645 C65.3264931,29.2696483 65.6479381,28.0968085 65.6479381,26.446145 L65.6479381,21.5723438 L60.2268117,21.5723438 L60.2268117,24.3350332 L61.4517778,24.3350332 L61.4517778,26.4722081 C61.4517778,27.1150981 61.356213,27.6233287 61.1650836,27.9968999 C60.9739541,28.3704711 60.6785722,28.5572567 60.2789379,28.5572567 C59.7750512,28.5572567 59.5231078,28.1054962 59.5231078,27.2019751 L59.5231078,17.9756349 C59.5231078,17.2458679 59.5622024,16.7246058 59.6403918,16.4118485 C59.7185811,16.0990912 59.9140544,15.9427125 60.2268117,15.9427125 C60.626446,15.9427125 60.9001086,16.1294981 61.0477996,16.5030694 C61.1954905,16.8766406 61.269336,17.4630605 61.269336,18.2623291 L61.269336,19.8782418 L63.7974575,19.8782418 C64.8194497,19.8782418 65.6479381,19.0497534 65.6479381,18.0277612 L65.6479381,18.0277612 L65.6479381,18.0277612 C65.6479381,16.4465993 65.1614268,15.256384 64.1884041,14.4571154 C63.2153814,13.6578468 61.8514121,13.2582124 60.0964962,13.2582124 C58.7238391,13.2582124 57.5987817,13.5188435 56.7213237,14.0401057 C55.8438657,14.5613678 55.2835089,15.3519488 55.0402532,16.4118485 C54.9360008,16.8114828 54.8795307,17.3110257 54.870843,17.9104772 C54.8621553,18.5099287 54.8578115,19.1224117 54.8578115,19.7479263 L54.8578115,25.8466935 C54.8578115,26.6112113 54.8969062,27.262789 54.9750955,27.8014266 C55.0532848,28.3400641 55.222695,28.8439509 55.4833261,29.3130868 C55.8482096,30.008103 56.4302857,30.5119898 57.2295543,30.8247471 C58.0288229,31.1375044 58.9584071,31.293883 60.0183068,31.293883 Z M71.4600112,31.2156937 L71.4600112,25.4036207 C71.4600112,23.8050834 71.5382005,22.8059976 71.6945791,22.4063633 C71.9378348,21.7634733 72.5633494,21.4420283 73.5711229,21.4420283 L73.8578171,21.4420283 L73.8578171,16.2554698 C73.1975517,16.3249714 72.6589141,16.5508517 72.2419044,16.9331106 C71.9117717,17.2458679 71.5903267,17.7497547 71.2775694,18.4447709 L71.4600112,16.5161009 L67.4202294,16.5161009 L67.4202294,31.2156937 L71.4600112,31.2156937 Z M77.7933463,31.2417568 C78.4362363,31.2417568 78.9270915,31.1461921 79.2659119,30.9550626 C79.6047323,30.7639332 79.9044581,30.4164251 80.1650892,29.9125383 L80.1650892,31.2156937 L84.1006184,31.2156937 L84.1006184,23.8398342 C84.1006184,22.0501675 84.0658676,20.7296367 83.996366,19.8782418 C83.9268644,19.026847 83.7313911,18.3578939 83.4099461,17.8713825 C83.0885011,17.3848712 82.6193651,17.0547385 82.0025383,16.8809844 C81.3857114,16.7072304 80.5647235,16.6203533 79.5395746,16.6203533 C78.6881797,16.6203533 78.0148828,16.6637918 77.5196837,16.7506689 C77.0244847,16.8375459 76.5857557,17.0634262 76.2034968,17.4283097 C75.69961,17.914821 75.3738212,18.4360832 75.2261302,18.9920961 C75.2261302,18.9920961 75.2261302,18.9920961 75.2261302,18.9920961 C74.9203197,20.1433828 75.6057135,21.3245935 76.7570002,21.630404 C76.937661,21.678392 77.1237936,21.7026914 77.3107192,21.7026594 L78.7576813,21.7026594 L78.7576813,21.7026594 L78.7576813,20.0085573 C78.7576813,19.522046 78.8184953,19.2092887 78.9401231,19.0702855 C79.0617509,18.9312822 79.2268173,18.8617806 79.4353221,18.8617806 C79.8523319,18.8617806 80.0608367,19.4786075 80.0608367,20.7122613 C80.0608367,21.2508988 80.0043667,21.6288139 79.8914265,21.8460064 C79.7784864,22.063199 79.5656377,22.2499846 79.2528804,22.4063633 L77.219958,23.318572 C76.2469353,23.7529572 75.6344523,24.165623 75.3825089,24.5565697 C75.1305655,24.9475163 75.0045938,25.6729394 75.0045938,26.7328392 L75.0045938,27.9317421 C75.0045938,28.4008781 75.0393446,28.839607 75.1088462,29.2479291 C75.1783479,29.6562511 75.2999757,30.0167907 75.4737298,30.329548 C75.6474838,30.6423053 75.9385218,30.8725294 76.3468439,31.0202204 C76.7551659,31.1679113 77.2373334,31.2417568 77.7933463,31.2417568 Z M79.4613852,28.870014 C79.0443755,28.870014 78.8098075,28.5833198 78.7576813,28.0099314 L78.7576813,28.0099314 L78.7576813,27.0455965 C78.7576813,26.2289524 78.8532461,25.6381886 79.0443755,25.2733051 C79.1660034,25.0474249 79.5048238,24.6999168 80.0608367,24.2307808 L80.0608367,24.2307808 L80.0608367,27.9578052 C80.0608367,28.5659444 79.8610196,28.870014 79.4613852,28.870014 Z M89.7041866,33.3268054 L89.7041866,29.9386014 C90.0516947,30.4424882 90.4165782,30.7943401 90.7988371,30.9941573 C91.181096,31.1939744 91.650232,31.293883 92.206245,31.293883 C93.4051479,31.293883 94.1957288,30.8594979 94.5779878,29.9907276 C94.8386188,29.3999639 94.9689344,28.3226887 94.9689344,26.7589023 L94.9689344,26.7589023 L94.9689344,20.5558826 C94.9689344,19.6871124 94.9428713,19.0398785 94.8907451,18.6141811 C94.8386188,18.1884837 94.7039595,17.8018809 94.4867669,17.4543728 C94.2695743,17.1068647 93.9741924,16.8592652 93.6006212,16.7115742 C93.22705,16.5638833 92.7970087,16.4900378 92.3104974,16.4900378 C91.7544844,16.4900378 91.2636292,16.5899464 90.8379318,16.7897635 C90.4122344,16.9895807 90.0343193,17.3327449 89.7041866,17.8192563 L89.7041866,17.8192563 L89.808439,16.5161009 L85.690468,16.5161009 L85.690468,33.3268054 L89.7041866,33.3268054 Z M90.3557643,28.870014 C89.9213792,28.870014 89.7041866,28.4964428 89.7041866,27.7493004 L89.7041866,27.7493004 L89.7041866,20.1128098 C89.7041866,19.2787903 89.9213792,18.8617806 90.3557643,18.8617806 C90.6511462,18.8617806 90.8162125,18.9573453 90.8509633,19.1484748 C90.8857142,19.3396042 90.9030896,19.6176107 90.9030896,19.9824942 L90.9030896,19.9824942 L90.9030896,27.7753635 C90.9030896,28.140247 90.8683388,28.4139096 90.7988371,28.5963514 C90.7293355,28.7787931 90.5816446,28.870014 90.3557643,28.870014 Z M100.337935,31.2156937 L100.337935,20.7122613 C100.337935,20.0346205 100.381373,19.5611407 100.46825,19.2918219 C100.555127,19.0225031 100.728881,18.8878437 100.989512,18.8878437 C101.319645,18.8878437 101.502087,19.0615978 101.536838,19.4091059 C101.571588,19.756614 101.588964,20.2431253 101.588964,20.8686399 L101.588964,31.2156937 L105.628745,31.2156937 L105.628745,21.0771448 C105.628745,20.2083745 105.607026,19.5003267 105.563588,18.9530015 C105.520149,18.4056762 105.420241,17.9756349 105.263862,17.6628776 C105.055357,17.2632433 104.729568,16.9722053 104.286495,16.7897635 C103.843423,16.6073218 103.326504,16.5161009 102.735741,16.5161009 C102.179728,16.5161009 101.727967,16.5682271 101.380459,16.6724796 C101.032951,16.776732 100.685443,16.9852368 100.337935,17.2979941 C100.337935,15.0812786 98.5409316,13.2842755 96.324216,13.2842755 L96.324216,13.2842755 L96.324216,13.2842755 L96.324216,31.2156937 L100.337935,31.2156937 Z" id="TuGraph" fill="#FFFFFF" fill-rule="nonzero"></path>
            <g id="Group-3-Copy" transform="translate(18.000000, 20.500000) rotate(33.000000) translate(-18.000000, -20.500000) translate(8.000000, 3.000000)" fill="url(#linearGradient-1)">
                <path d="M6.80799587,0.227862817 C9.53230604,0.757415069 11.3115089,3.39519174 10.7819566,6.11950191 C10.4757851,7.69461778 9.46487387,8.95380207 8.13931947,9.63224432 C7.80065879,9.72891932 7.47119839,9.87832689 7.16061735,10.0800206 C5.43822099,11.1985578 4.94869649,13.5015896 6.06723376,15.2239859 C6.13621022,15.3302004 6.20969106,15.4317265 6.28726233,15.5284763 L6.30217415,15.5726685 L6.30217415,15.5726685 C6.45747762,15.7155853 6.59922373,15.8731737 6.72684244,16.0420346 L6.96027697,16.1789661 C7.87063954,16.8586565 9.05373079,17.0873578 10.1552534,16.7897618 C11.2298972,16.6604608 12.2060567,16.2106157 12.9855233,15.5388376 L13.0480433,15.5374288 C13.8869121,14.7444826 15.0829383,14.3540166 16.3024844,14.5910724 C17.3515513,14.7949903 18.2105358,15.4229198 18.7361936,16.2624926 C19.1121042,16.8416619 19.3299296,17.5322774 19.3299296,18.2737688 C19.3299296,19.5503084 18.6843275,20.6760595 17.7018211,21.3423243 C16.9855996,22.1023501 16.4636241,23.087078 16.2445818,24.2139529 C16.0355221,25.2894715 16.1308257,26.3483059 16.4674097,27.288868 L16.4842405,27.3307946 C17.3909082,28.3283755 17.8317543,29.7265001 17.5547566,31.15153 C17.0887506,33.548923 14.7675071,35.1146214 12.3701142,34.6486155 C9.97272124,34.1826095 8.40702275,31.861366 8.87302874,29.4639731 C9.14504128,28.0645898 10.0491663,26.9485798 11.2326521,26.3559768 L11.3117009,26.2641691 C11.3682783,26.231489 11.4243132,26.1971557 11.4797466,26.1611568 C13.202143,25.0426196 13.6916675,22.7395878 12.5731302,21.0171915 L12.5553216,20.9915974 L12.5233216,20.8645974 L12.4560472,20.8193975 C12.4432277,20.8113267 12.4303714,20.803309 12.4174785,20.7953448 C11.2513422,19.2545163 9.07512988,18.8549057 7.42916487,19.9238079 C6.99569512,20.2053064 6.64031068,20.5618262 6.36899192,20.9652319 L6.31453685,20.9659853 C5.650769,21.5937474 4.7549621,21.9786935 3.76924623,21.9786935 C1.72307286,21.9786935 0.0643216079,20.3199422 0.0643216079,18.2737688 C0.0643216079,17.2074873 0.514764952,16.2464125 1.23574534,15.5704506 L1.2373783,15.5604883 C2.17900605,14.7920796 2.87323161,13.6863849 3.12739753,12.3788146 C3.34976875,11.2348138 3.2019328,10.1079032 2.76821576,9.13188082 C1.31975793,8.00629474 0.542405734,6.12563491 0.91635678,4.20182356 C1.44590903,1.47751339 4.0836857,-0.301689436 6.80799587,0.227862817 Z" id="Combined-Shape"></path>
            </g>
        </g>
    </g>
</svg>