<?xml version="1.0" encoding="UTF-8"?>
<svg width="856px" height="194px" viewBox="0 0 856 194" version="1.1" xmlns="http://www.w3.org/2000/svg" xmlns:xlink="http://www.w3.org/1999/xlink">
    <title>编组 2</title>
    <defs>
        <path d="M22.1860431,0 C10.2248103,0 0.526560345,9.69651724 0.526560345,21.6594828 L0.526560345,21.6594828 C0.526560345,33.6207155 10.2248103,43.3189655 22.1860431,43.3189655 L22.1860431,43.3189655 C34.1490086,43.3189655 43.8455259,33.6207155 43.8455259,21.6594828 L43.8455259,21.6594828 C43.8455259,9.69651724 34.1490086,0 22.1860431,0 Z" id="path-1"></path>
        <path d="M0.526560345,21.9193966 C0.526560345,33.8823621 10.2230776,43.5788793 22.1860431,43.5788793 L22.1860431,43.5788793 C34.1472759,43.5788793 43.8455259,33.8823621 43.8455259,21.9193966 L43.8455259,21.9193966 C43.8455259,9.95816379 34.1472759,0.261646552 22.1860431,0.261646552 L22.1860431,0.261646552 C10.2230776,0.261646552 0.526560345,9.95816379 0.526560345,21.9193966" id="path-3"></path>
        <path d="M0.526560345,21.6594828 C0.526560345,33.6207155 10.2248103,43.3189655 22.1860431,43.3189655 L22.1860431,43.3189655 C34.1490086,43.3189655 43.8455259,33.6207155 43.8455259,21.6594828 L43.8455259,21.6594828 C43.8455259,9.69825 34.1490086,0 22.1860431,0 L22.1860431,0 C10.2248103,0 0.526560345,9.69825 0.526560345,21.6594828" id="path-5"></path>
        <linearGradient x1="100%" y1="50.0007312%" x2="2.02854774e-05%" y2="50.0007312%" id="linearGradient-7">
            <stop stop-color="#9846F9" offset="0%"></stop>
            <stop stop-color="#303BF4" offset="100%"></stop>
        </linearGradient>
    </defs>
    <g id="页面-1" stroke="none" stroke-width="1" fill="none" fill-rule="evenodd">
        <g id="编组-4" transform="translate(0.000000, -0.000000)">
            <path d="M43.1747134,17.932319 L1.85708405,89.4969828 C-0.619028017,93.7872931 -0.619028017,99.0704741 1.85708405,103.359052 L1.85708405,103.359052 L25.5144375,144.335328 C26.7984116,146.558457 29.1255065,147.802578 31.5236444,147.802578 L31.5236444,147.802578 C32.6984547,147.802578 33.8905927,147.50281 34.9822306,146.870353 L34.9822306,146.870353 C38.2952651,144.957388 39.4319547,140.71906 37.5172565,137.404293 L37.5172565,137.404293 L15.862972,99.8952672 C14.6223168,97.7501121 14.6223168,95.1076552 15.862972,92.9625 L15.862972,92.9625 L55.1792651,24.8650862 C57.0939634,21.5485862 55.9572737,17.3102586 52.6425065,15.3972931 L52.6425065,15.3972931 C51.5491358,14.7648362 50.3569978,14.465069 49.1804547,14.465069 L49.1804547,14.465069 C46.7857823,14.465069 44.4569547,15.7091897 43.1747134,17.932319" id="Fill-1" fill="#49CBFA"></path>
            <path d="M83.8321616,14.4685345 C79.7792392,14.4685345 76.5389806,17.946181 76.9340496,22.0805431 L76.9340496,22.0805431 C77.2788685,25.6829483 80.5104634,28.3306034 84.1301961,28.3306034 L84.1301961,28.3306034 L127.811308,28.3306034 C130.28742,28.3306034 132.576394,29.6509655 133.811851,31.7961207 L133.811851,31.7961207 L173.13161,99.8952672 C174.417317,102.116664 176.744412,103.360784 179.140817,103.360784 L179.140817,103.360784 C180.315627,103.360784 181.507765,103.06275 182.599403,102.430293 L182.599403,102.430293 C185.91417,100.517328 187.05086,96.279 185.136162,92.9625 L185.136162,92.9625 L143.818532,21.3978362 C141.34242,17.1092586 136.766205,14.4685345 131.813981,14.4685345 L131.813981,14.4685345 L83.8321616,14.4685345 Z" id="Fill-3" fill="#303BF4"></path>
            <path d="M155.660205,123.225129 L133.811851,161.063379 C132.576394,163.208534 130.28742,164.528897 127.811308,164.528897 L127.811308,164.528897 L49.1769892,164.528897 C45.1240668,164.528897 41.8838082,168.008276 42.2788772,172.142638 L42.2788772,172.142638 C42.6219634,175.745043 45.8552909,178.390966 49.4750237,178.390966 L49.4750237,178.390966 L131.813981,178.390966 C136.766205,178.390966 141.34242,175.750241 143.818532,171.459931 L143.818532,171.459931 L167.815506,129.89625 C169.841101,126.387414 168.447963,121.840655 164.672282,120.114828 L164.672282,120.114828 C163.788575,119.712828 162.86155,119.523957 161.941455,119.523957 L161.941455,119.523957 C159.43242,119.523957 156.984032,120.929224 155.660205,123.225129" id="Fill-5" fill="#9846F9"></path>
            <g id="编组" transform="translate(26.990946, 0.000000)">
                <mask id="mask-2" fill="white">
                    <use xlink:href="#path-1"></use>
                </mask>
                <g id="Clip-8"></g>
                <path d="M22.1860431,0 C10.2248103,0 0.526560345,9.69651724 0.526560345,21.6594828 L0.526560345,21.6594828 C0.526560345,33.6207155 10.2248103,43.3189655 22.1860431,43.3189655 L22.1860431,43.3189655 C34.1490086,43.3189655 43.8455259,33.6207155 43.8455259,21.6594828 L43.8455259,21.6594828 C43.8455259,9.69651724 34.1490086,0 22.1860431,0 Z" id="Fill-7" fill="#49CBFA" mask="url(#mask-2)"></path>
            </g>
            <g id="编组" transform="translate(156.947843, 74.508621)">
                <mask id="mask-4" fill="white">
                    <use xlink:href="#path-3"></use>
                </mask>
                <g id="Clip-10"></g>
                <path d="M0.526560345,21.9193966 C0.526560345,33.8823621 10.2230776,43.5788793 22.1860431,43.5788793 L22.1860431,43.5788793 C34.1472759,43.5788793 43.8455259,33.8823621 43.8455259,21.9193966 L43.8455259,21.9193966 C43.8455259,9.95816379 34.1472759,0.261646552 22.1860431,0.261646552 L22.1860431,0.261646552 C10.2230776,0.261646552 0.526560345,9.95816379 0.526560345,21.9193966" id="Fill-9" fill="#303BF4" mask="url(#mask-4)"></path>
            </g>
            <g id="编组" transform="translate(26.990946, 149.017241)">
                <mask id="mask-6" fill="white">
                    <use xlink:href="#path-5"></use>
                </mask>
                <g id="Clip-12"></g>
                <path d="M0.526560345,21.6594828 C0.526560345,33.6207155 10.2248103,43.3189655 22.1860431,43.3189655 L22.1860431,43.3189655 C34.1490086,43.3189655 43.8455259,33.6207155 43.8455259,21.6594828 L43.8455259,21.6594828 C43.8455259,9.69825 34.1490086,0 22.1860431,0 L22.1860431,0 C10.2248103,0 0.526560345,9.69825 0.526560345,21.6594828" id="Fill-11" fill="#9846F9" mask="url(#mask-6)"></path>
                <path d="M130.483457,-52.5892241 C130.483457,-40.6262586 140.179974,-30.9297414 152.14294,-30.9297414 L152.14294,-30.9297414 C164.104172,-30.9297414 173.802422,-40.6262586 173.802422,-52.5892241 L173.802422,-52.5892241 C173.802422,-64.5504569 164.104172,-74.2469741 152.14294,-74.2469741 L152.14294,-74.2469741 C140.179974,-74.2469741 130.483457,-64.5504569 130.483457,-52.5892241" id="Fill-9" fill="#303BF4" mask="url(#mask-6)"></path>
            </g>
            <g id="编组-9" transform="translate(29.456463, 43.318966)">
                <path d="M46.9802845,27.7241379 L31.9988534,53.7155172 L46.9802845,79.7068966 L76.7646724,79.7068966 L91.7461034,53.7155172 L116.20919,53.7155172 C116.20919,57.2694052 116.813922,60.6812069 117.8865,63.8764138 L117.8865,63.8764138 L92.7857586,107.431034 L42.8944397,107.431034 C38.3130259,101.952052 31.9434052,98.0186897 24.6866121,96.5493103 L24.6866121,96.5493103 L0,53.7155172 L25.0348966,10.2804569 C31.9070172,8.80587931 37.9543448,5.11163793 42.4231293,0 L42.4231293,0 L92.7857586,0 L108.764,27.724 L46.9802845,27.7241379 Z" id="形状结合" fill=""></path>
                <path d="M67.2522608,39.8534483 L58.9142263,54.3219828 L66.5539591,67.5775862 L88.1562608,67.5775862 L115.753907,67.5775862 L117.828019,63.9803793 L117.828019,63.717 C117.594097,63.0048362 117.391364,62.2822759 117.205959,61.5510517 C117.19383,61.5111983 117.179968,61.4730776 117.169571,61.4314914 C116.985899,60.6933362 116.82995,59.9430517 116.699994,59.1841034 C116.682666,59.0957328 116.66014,59.0073621 116.642813,58.9172586 C116.524985,58.2033621 116.44008,57.479069 116.370769,56.7513103 C116.35864,56.6126897 116.330916,56.4792672 116.320519,56.3406466 C116.247744,55.476 116.20789,54.5992241 116.20789,53.7155172 C116.20789,52.8318103 116.247744,51.9567672 116.320519,51.0903879 C116.330916,50.9500345 116.35864,50.8166121 116.370769,50.6779914 C116.44008,49.9502328 116.524985,49.2259397 116.642813,48.5137759 C116.66014,48.4236724 116.682666,48.3387672 116.699994,48.246931 C116.82995,47.4879828 116.985899,46.7359655 117.169571,45.9978103 C117.179968,45.9579569 117.19383,45.9198362 117.204226,45.8799828 C117.391364,45.1487586 117.594097,44.4261983 117.828019,43.7140345 L117.828019,43.4489224 L115.753907,39.8534483 L67.2522608,39.8534483 Z" id="Fill-1" fill="url(#linearGradient-7)"></path>
            </g>
            <g id="编组-5" transform="translate(231.000000, 41.000000)" fill="#FFFFFF">
                <path d="M58.189818,53.7402319 L58.189818,68.7011596 L88.615786,68.7011596 C83.9400942,86.3593396 69.5640405,98.7206957 52.4857211,98.7206957 C31.6149648,98.7206957 14.6941489,80.1991429 14.6941489,56.2515755 C14.6941489,32.3008571 31.6149648,13.7793043 52.4857211,13.7793043 C66.182348,13.7793043 78.1433482,21.2786741 84.7708479,33.79758 L95.5737342,22.775397 C85.9104319,8.97718679 70.4781784,0 53.0292626,0 C23.7428787,0 0,25.1827578 0,56.2515755 C0,87.3172422 23.7428787,112.5 53.0292626,112.5 C81.2347401,112.5 104.230249,89.1259138 105.897933,59.6514999 L106.25,53.7402319 L58.189818,53.7402319 Z" id="Fill-15"></path>
                <path d="M315.409894,53.7402319 L315.409894,68.7011596 L344.905185,68.7011596 C340.372515,86.3593396 326.436199,98.7206957 309.880276,98.7206957 C289.647919,98.7206957 273.244681,80.1991429 273.244681,56.2515755 C273.244681,32.3008571 289.647919,13.7793043 309.880276,13.7793043 C323.157947,13.7793043 334.753081,21.2786741 341.177857,33.79758 L351.650302,22.775397 C342.282583,8.97718679 327.322375,0 310.407191,0 C282.016626,0 259,25.1827578 259,56.2515755 C259,87.3172422 282.016626,112.5 310.407191,112.5 C337.749913,112.5 360.04203,89.1259138 361.658702,59.6514999 L362,53.7402319 L315.409894,53.7402319 Z" id="Fill-15"></path>
                <path d="M218.12143,64.880506 C227.629363,64.880506 235.335179,72.2082646 235.335179,81.2515624 C235.335179,90.2917354 227.629363,97.6226189 218.12143,97.6226189 C208.613497,97.6226189 203.210216,90.2917354 203.210216,81.2515624 C203.210216,72.2082646 208.613497,64.880506 218.12143,64.880506 M216.061429,112.5 C223.500151,112.5 230.254253,109.359532 235.335179,104.259787 L235.335179,110.221989 L250.01,110.221989 L250.01,52.6061197 L235.335179,52.6061197 L235.335179,58.2433378 C230.254253,53.140468 223.500151,50 216.061429,50 C200.293672,50 187.51,63.9930503 187.51,81.2515624 C187.51,98.5100745 200.293672,112.5 216.061429,112.5" id="Fill-45"></path>
                <path d="M457.63643,64.880506 C467.144363,64.880506 474.850179,72.2082646 474.850179,81.2515624 C474.850179,90.2917354 467.144363,97.6226189 457.63643,97.6226189 C448.128497,97.6226189 442.725216,90.2917354 442.725216,81.2515624 C442.725216,72.2082646 448.128497,64.880506 457.63643,64.880506 M455.576429,112.5 C463.015151,112.5 469.769253,109.359532 474.850179,104.259787 L474.850179,110.221989 L489.525,110.221989 L489.525,52.6061197 L474.850179,52.6061197 L474.850179,58.2433378 C469.769253,53.140468 463.015151,50 455.576429,50 C439.808672,50 427.025,63.9930503 427.025,81.2515624 C427.025,98.5100745 439.808672,112.5 455.576429,112.5" id="Fill-45备份-5"></path>
                <path d="M146.88,64.03125 C152.495625,64.03125 157.39875,67.565625 160.12375,72.528125 L133.63625,72.528125 C136.36125,67.565625 141.264375,64.03125 146.88,64.03125 M175.19875,97.028125 L163.014375,89.99375 C159.295625,95.378125 152.98625,98.065625 146.88,98.065625 C139.79875,98.065625 133.839375,92.7375 131.97375,85.809375 L178.13,85.809375 L178.13,80.665625 L178.09875,80.609375 C177.751875,63.65 163.92375,50 146.88,50 C129.620625,50 115.63,63.99375 115.63,81.253125 C115.63,98.5125 129.620625,112.503125 146.88,112.503125 C158.58625,112.503125 169.7425,106.5125 175.19875,97.028125" id="Fill-62备份"></path>
            </g>
            <g id="编组-3" transform="translate(609.000000, 52.000000)" fill="#FFFFFF">
                <path d="M15.0940146,41.9148254 L0,41.9148254 L0,95.8 L15.0940146,95.8 L15.0940146,69.9953804 C17.7654658,43.9634586 36.8950768,56.5058734 36.8950768,56.5058734 L44,43.3922892 C26.7460887,35.0199942 18.2391273,43.2961229 15.0940146,47.8858774 L15.0940146,41.9148254 Z" id="Fill-29"></path>
                <path d="M154.348915,76 C145.006596,76 140,69.7335369 140,62 C140,54.2691353 145.006596,48 154.348915,48 C163.691234,48 169,54.2691353 169,62 C169,69.7335369 163.691234,76 154.348915,76 M157.415406,36 C150.752407,36 144.70564,38.6629657 140.152682,42.9889588 L140.152682,37.9335677 L127,37.9335677 L127,122 L140.152682,122 L140.152682,82.0608191 C144.70564,86.3868122 150.752407,89.0497779 157.415406,89.0497779 C171.544704,89.0497779 183,77.1725265 183,62.5235628 C183,47.8745991 171.544704,36 157.415406,36" id="Fill-31"></path>
                <path d="M205.846367,79.2299831 L205.846367,64.4050692 C205.846367,57.9848741 211.735219,52.7806459 219,52.7806459 C226.264781,52.7806459 232.153633,57.9848741 232.153633,64.4050692 L232.153633,82.9657186 L232.153633,94 L247,94 L247,62.9448111 C247,50.8812124 235.933555,41.1013257 222.282973,41.1013257 C215.962396,41.1013257 210.216417,43.2148572 205.846367,46.6623839 L205.846367,0 L191,0 L191,94 L205.846367,94 L205.846367,79.2299831 Z" id="Fill-54"></path>
            </g>
        </g>
    </g>
</svg>