<?xml version="1.0" encoding="UTF-8"?>
<svg width="20px" height="20px" viewBox="0 0 20 20" version="1.1" xmlns="http://www.w3.org/2000/svg" xmlns:xlink="http://www.w3.org/1999/xlink">
    <!-- Generator: Sketch 61.2 (89653) - https://sketch.com -->
    <title>04plugin_1@svg</title>
    <desc>Created with Sketch.</desc>
    <defs>
        <rect id="path-1" x="0" y="0" width="20" height="20"></rect>
    </defs>
    <g id="04plugin_1" stroke="none" stroke-width="1" fill="none" fill-rule="evenodd">
        <mask id="mask-2" fill="white">
            <use xlink:href="#path-1"></use>
        </mask>
        <g id="Rectangle-Copy-14"></g>
        <path d="M12.3535534,0.146446607 C12.9058381,0.146446607 13.3535534,0.594161857 13.3535534,1.14644661 L13.3525534,5.14644661 L17.3535534,5.14644661 C17.9058381,5.14644661 18.3535534,5.59416186 18.3535534,6.14644661 C18.3535534,6.69873136 17.9058381,7.14644661 17.3535534,7.14644661 L16.3535534,7.14644661 L16.3535534,14.1464466 C16.3535534,15.2510161 15.4581229,16.1464466 14.3535534,16.1464466 L10.3535534,16.1464466 L10.3535534,19.1464466 C10.3535534,19.6987314 9.90583814,20.1464466 9.35355339,20.1464466 C8.80126864,20.1464466 8.35355339,19.6987314 8.35355339,19.1464466 L8.35355339,16.1464466 L4.35355339,16.1464466 C3.24898389,16.1464466 2.35355339,15.2510161 2.35355339,14.1464466 L2.35355339,7.14644661 L1.35355339,7.14644661 C0.801268641,7.14644661 0.353553391,6.69873136 0.353553391,6.14644661 C0.353553391,5.59416186 0.801268641,5.14644661 1.35355339,5.14644661 L5.35355339,5.14644661 L5.35355339,1.14644661 C5.35355339,0.594161859 5.80126864,0.146446609 6.35355339,0.146446609 C6.90583814,0.146446609 7.35355339,0.594161859 7.35355339,1.14644661 L7.35355339,5.14644661 L11.3535534,5.14644661 L11.3535534,1.14644661 C11.3535534,0.594161857 11.8012686,0.146446607 12.3535534,0.146446607 Z M14.3535534,7.14644661 L4.35355339,7.14644661 L4.35355339,14.1464466 L14.3535534,14.1464466 L14.3535534,7.14644661 Z" id="Combined-Shape" fill="#A5A6B0" mask="url(#mask-2)" transform="translate(9.353553, 10.146447) rotate(45.000000) translate(-9.353553, -10.146447) "></path>
        <rect id="Rectangle" fill="#A5A6B0" mask="url(#mask-2)" transform="translate(9.353553, 10.146447) rotate(45.000000) translate(-9.353553, -10.146447) " x="6.35355339" y="9.14644661" width="6" height="2" rx="1"></rect>
    </g>
</svg>