<?xml version="1.0" encoding="UTF-8"?>
<svg width="98px" height="110px" viewBox="0 0 98 110" version="1.1" xmlns="http://www.w3.org/2000/svg" xmlns:xlink="http://www.w3.org/1999/xlink">
    <!-- Generator: Sketch 61.2 (89653) - https://sketch.com -->
    <title>empty</title>
    <desc>Created with Sketch.</desc>
    <defs>
        <linearGradient x1="50%" y1="0%" x2="50%" y2="100%" id="linearGradient-1">
            <stop stop-color="#D8E5FF" offset="0%"></stop>
            <stop stop-color="#AFCBFF" offset="100%"></stop>
        </linearGradient>
    </defs>
    <g id="empty" stroke="none" stroke-width="1" fill="none" fill-rule="evenodd">
        <g id="Group-2-Copy">
            <path d="M49,12.1100917 C54.5228475,12.1100917 59,16.5872442 59,22.1100917 L58.999,31.2840917 L75,31.2844037 C78.8659932,31.2844037 82,34.4184104 82,38.2844037 L81.999,54.4950917 L88.412844,54.4954128 C93.7076841,54.4954128 98,58.7877288 98,64.0825688 C98,69.3774088 93.7076841,73.6697248 88.412844,73.6697248 L81.999,73.6690917 L82,90.8899083 C82,94.7559015 78.8659932,97.8899083 75,97.8899083 L59,97.8894037 L59,91.7431193 C59,86.3138794 54.6733292,81.8951875 49.2799048,81.7469611 L49,81.7431193 C43.5707601,81.7431193 39.1520683,86.0697901 39.0038418,91.4632144 L39,91.7431193 L39,97.8894037 L22,97.8899083 C18.1340068,97.8899083 15,94.7559015 15,90.8899083 L15,74.6784037 L24.9082569,74.6788991 C30.3888808,74.6788991 34.8490993,70.3100243 34.9962508,64.8649363 L35,64.587156 C35,59.1065321 30.6311252,54.6463136 25.1860372,54.499162 L24.9082569,54.4954128 L15,54.4954037 L15,38.2844037 C15,34.4184104 18.1340068,31.2844037 22,31.2844037 L38.999,31.2840917 L39,22.1100917 C39,16.5872442 43.4771525,12.1100917 49,12.1100917 Z" id="Combined-Shape" fill="url(#linearGradient-1)"></path>
            <path d="M83.9029822,17.0999683 L76.9813291,19.8253923 C76.621611,19.9670325 76.2151798,19.7902454 76.0735396,19.4305273 C76.0086425,19.2657108 76.0086425,19.0824194 76.0735396,18.9176028 L78.7989636,11.9959497 L78.7989636,11.9959497 L76.0540627,5.07189131 C75.9115902,4.71250207 76.087436,4.30566275 76.4468252,4.16319026 C76.6125318,4.09749931 76.7970572,4.09749931 76.9627638,4.16319026 L83.8868222,6.90809115 L83.8868222,6.90809115 L90.8084753,4.18266717 C91.1681934,4.04102698 91.5746246,4.21781403 91.7162647,4.57753211 C91.7811618,4.74234868 91.7811618,4.92564004 91.7162647,5.09045661 L88.9908408,12.0121098 L88.9908408,12.0121098 L91.7357417,18.9361681 C91.8782141,19.2955574 91.7023684,19.7023967 91.3429791,19.8448692 C91.1772726,19.9105601 90.9927471,19.9105601 90.8270406,19.8448692 L83.9029822,17.0999683 L83.9029822,17.0999683 Z" id="Star" fill="#FFFFFF" transform="translate(83.894902, 12.004030) rotate(45.000000) translate(-83.894902, -12.004030) "></path>
            <polygon id="Star-Copy" fill="#FFFFFF" transform="translate(6.297301, 67.914708) rotate(45.000000) translate(-6.297301, -67.914708) " points="6.30083843 70.1456106 1.84443681 72.3675719 4.06639815 67.9111703 1.83029362 63.4477001 6.29376388 65.6838046 10.7501655 63.4618432 8.52820416 67.9182449 10.7643087 72.3817151"></polygon>
            <polygon id="Star-Copy-2" fill="#FFFFFF" transform="translate(91.297301, 103.235809) rotate(45.000000) translate(-91.297301, -103.235809) " points="91.3008384 105.466712 86.8444368 107.688673 89.0663982 103.232271 86.8302936 98.768801 91.2937639 101.004906 95.7501655 98.7829442 93.5282042 103.239346 95.7643087 107.702816"></polygon>
        </g>
    </g>
</svg>