<?xml version="1.0" encoding="UTF-8"?>
<svg width="36px" height="36px" viewBox="0 0 36 36" version="1.1" xmlns="http://www.w3.org/2000/svg" xmlns:xlink="http://www.w3.org/1999/xlink">
    <!-- Generator: Sketch 61.2 (89653) - https://sketch.com -->
    <title>title</title>
    <desc>Created with Sketch.</desc>
    <g id="title" stroke="none" stroke-width="1" fill="none" fill-rule="evenodd">
        <g id="Group-7">
            <rect id="Rectangle" x="0" y="0" width="36" height="36"></rect>
            <path d="M16.5,7 C17.8807119,7 19,8.11928813 19,9.5 L19,11.5 C19,11.6710301 18.9828256,11.8380489 18.9501074,11.999426 L23.2,12 C24.1941125,12 25,12.8058875 25,13.8 L24.9995655,18.0500973 C25.1612552,18.017246 25.3286136,18 25.5,18 L27.5,18 C28.8807119,18 30,19.1192881 30,20.5 C30,21.8807119 28.8807119,23 27.5,23 L25.5,23 C25.3286136,23 25.1612552,22.982754 24.9995655,22.9499027 L25,28.2 C25,29.1941125 24.1941125,30 23.2,30 L18.9499027,30.0004345 C18.9718036,29.8926414 18.9867687,29.7823288 18.9943121,29.669983 L19,29.5 L19,27.5 C19,26.1192881 17.8807119,25 16.5,25 C15.1745166,25 14.0899613,26.0315359 14.0053177,27.3356243 L14,27.5 L14,29.5 C14,29.6713864 14.017246,29.8387448 14.0500973,30.0004345 L8.8,30 C7.80588745,30 7,29.1941125 7,28.2 L7.00047581,21.9500875 C7.10808079,21.9719083 7.2181944,21.986818 7.33033324,21.9943333 L7.5,22 L9.5,22 C10.8807119,22 12,20.8807119 12,19.5 C12,18.1745166 10.9684641,17.0899613 9.66437569,17.0053177 L9.5,17 L7.5,17 C7.32893518,17 7.16188327,17.0171813 7.00047581,17.0499125 L7,13.8 C7,12.8058875 7.80588745,12 8.8,12 L14.0498926,11.999426 C14.0171744,11.8380489 14,11.6710301 14,11.5 L14,9.5 C14,8.11928813 15.1192881,7 16.5,7 Z" id="Combined-Shape" fill="#A9C5EE"></path>
        </g>
    </g>
</svg>