<?xml version="1.0" encoding="UTF-8"?>
<svg width="100px" height="100px" viewBox="0 0 100 100" version="1.1" xmlns="http://www.w3.org/2000/svg" xmlns:xlink="http://www.w3.org/1999/xlink">
    <!-- Generator: Sketch 63.1 (92452) - https://sketch.com -->
    <title>Artboard Copy</title>
    <desc>Created with Sketch.</desc>
    <defs>
        <linearGradient x1="43.8943355%" y1="13.9349747%" x2="56.9050949%" y2="84.2213369%" id="linearGradient-1">
            <stop stop-color="#4987FF" offset="0%"></stop>
            <stop stop-color="#21CCBD" offset="100%"></stop>
        </linearGradient>
    </defs>
    <g id="Artboard-Copy" stroke="none" stroke-width="1" fill="none" fill-rule="evenodd">
        <g id="Group-7" transform="translate(6.000000, 5.000000)">
            <path d="M8.93108399,87.4753247 L8.93108399,70.3012987 L12.2099785,70.3012987 L12.2099785,66.0311688 L0,66.0311688 L0,70.3012987 L3.34134961,70.3012987 L3.34134961,87.4753247 L8.93108399,87.4753247 Z M16.7379756,87.5064935 C17.4249821,87.5064935 17.9818737,87.3922078 18.4086504,87.1636364 C18.8354271,86.9350649 19.2257717,86.5506494 19.5796841,86.0103896 L19.4860014,87.4753247 L24.4199569,87.4753247 L24.4199569,69.8961039 L19.5796841,69.8961039 L19.5796841,83.2051948 C19.5796841,83.6207792 19.5588658,83.9116883 19.517229,84.0779221 C19.4131371,84.4727273 19.1737258,84.6701299 18.798995,84.6701299 C18.5491744,84.6701299 18.3774228,84.5714286 18.2837401,84.374026 C18.1900574,84.1766234 18.1432161,83.8805195 18.1432161,83.4857143 L18.1432161,69.8961039 L13.2717157,69.8961039 L13.2717157,82.6441558 C13.2717157,83.8077922 13.3237617,84.6857143 13.4278536,85.2779221 C13.5319454,85.8701299 13.7921752,86.3948052 14.2085427,86.8519481 C14.4791816,87.1428571 14.7810481,87.3246753 15.1141421,87.3974026 C15.4472362,87.4701299 15.8636037,87.5064935 16.3632448,87.5064935 L16.7379756,87.5064935 Z M32.3517588,87.5688312 C35.0789663,87.5688312 36.9422111,87.038961 37.9414932,85.9792208 C38.7117732,85.1480519 39.0969131,83.7454545 39.0969131,81.7714286 L39.0969131,75.9428571 L32.6015793,75.9428571 L32.6015793,79.2467532 L34.0692749,79.2467532 L34.0692749,81.8025974 C34.0692749,82.5714286 33.9547739,83.1792208 33.7257717,83.625974 C33.4967696,84.0727273 33.1428571,84.2961039 32.6640345,84.2961039 C32.0603015,84.2961039 31.758435,83.7558442 31.758435,82.6753247 L31.758435,71.6415584 C31.758435,70.7688312 31.8052764,70.1454545 31.8989591,69.7714286 C31.9926418,69.3974026 32.2268485,69.2103896 32.6015793,69.2103896 C33.080402,69.2103896 33.4082915,69.4337662 33.5852477,69.8805195 C33.7622039,70.3272727 33.850682,71.0285714 33.850682,71.9844156 L33.850682,73.9168831 L36.8839261,73.9168831 C38.1061251,73.9168831 39.0969131,72.9260951 39.0969131,71.7038961 L39.0969131,71.7038961 L39.0969131,71.7038961 C39.0969131,69.812987 38.5139986,68.3896104 37.3481694,67.4337662 C36.1823403,66.4779221 34.5480976,66 32.4454415,66 C30.8007897,66 29.4527997,66.3116883 28.4014716,66.9350649 C27.3501436,67.5584416 26.6787509,68.5038961 26.3872936,69.7714286 C26.2623833,70.2493506 26.1947236,70.8467532 26.1843144,71.5636364 C26.1739052,72.2805195 26.1687006,73.012987 26.1687006,73.761039 L26.1687006,81.0545455 C26.1687006,81.9688312 26.215542,82.7480519 26.3092247,83.3922078 C26.4029074,84.0363636 26.6058866,84.638961 26.9181622,85.2 C27.3553482,86.0311688 28.0527638,86.6337662 29.0104092,87.0077922 C29.9680546,87.3818182 31.0818378,87.5688312 32.3517588,87.5688312 Z M46.0606604,87.4753247 L46.0606604,80.5246753 C46.0606604,78.612987 46.1543431,77.4181818 46.3417085,76.9402597 C46.6331658,76.1714286 47.3826274,75.787013 48.5900933,75.787013 L48.9335966,75.787013 L48.9335966,69.5844156 C48.1424982,69.6675325 47.4971285,69.9376623 46.9974874,70.3948052 C46.6019383,70.7688312 46.2167983,71.3714286 45.8420675,72.2025974 L46.0606604,69.8961039 L41.2203877,69.8961039 L41.2203877,87.4753247 L46.0606604,87.4753247 Z M53.6489591,87.5064935 C54.4192391,87.5064935 55.0073582,87.3922078 55.4133166,87.1636364 C55.8192749,86.9350649 56.178392,86.5194805 56.4906676,85.9168831 L56.4906676,87.4753247 L61.2060302,87.4753247 L61.2060302,78.6545455 C61.2060302,76.5142857 61.1643934,74.9350649 61.0811199,73.9168831 C60.9978464,72.8987013 60.7636396,72.0987013 60.3784996,71.5168831 C59.9933597,70.9350649 59.4312635,70.5402597 58.6922111,70.3324675 C57.9531587,70.1246753 56.9694903,70.0207792 55.741206,70.0207792 C54.7211055,70.0207792 53.9143934,70.0727273 53.3210696,70.1766234 C52.7277459,70.2805195 52.2020818,70.5506494 51.7440775,70.987013 C51.1403446,71.5688312 50.75,72.1922078 50.5730438,72.8571429 C50.5730438,72.8571429 50.5730438,72.8571429 50.5730438,72.8571429 C50.2068133,74.2332998 51.0255204,75.6457839 52.4016773,76.0120144 C52.6180149,76.0695873 52.840929,76.0987415 53.0647963,76.0987013 L54.804379,76.0987013 L54.804379,76.0987013 L54.804379,74.0727273 C54.804379,73.4909091 54.8772434,73.1168831 55.022972,72.9506494 C55.1687006,72.7844156 55.3664752,72.7012987 55.6162958,72.7012987 C56.1159368,72.7012987 56.3657574,73.438961 56.3657574,74.9142857 C56.3657574,75.5584416 56.2980976,76.0103896 56.1627782,76.2701299 C56.0274587,76.5298701 55.7724336,76.7532468 55.3977028,76.9402597 L52.9619526,78.0311688 C51.7961235,78.5506494 51.0622757,79.0441558 50.7604092,79.5116883 C50.4585427,79.9792208 50.3076095,80.8467532 50.3076095,82.1142857 L50.3076095,83.5480519 C50.3076095,84.1090909 50.3492462,84.6337662 50.4325197,85.1220779 C50.5157933,85.6103896 50.6615219,86.0415584 50.8697057,86.4155844 C51.0778894,86.7896104 51.4265973,87.0649351 51.9158291,87.2415584 C52.405061,87.4181818 52.982771,87.5064935 53.6489591,87.5064935 Z M55.6475233,84.6701299 C55.1478823,84.6701299 54.8668342,84.3272727 54.804379,83.6415584 L54.804379,83.6415584 L54.804379,82.4883117 C54.804379,81.5116883 54.9188801,80.8051948 55.1478823,80.3688312 C55.2936109,80.0987013 55.6995693,79.6831169 56.3657574,79.1220779 L56.3657574,79.1220779 L56.3657574,83.5792208 C56.3657574,84.3064935 56.126346,84.6701299 55.6475233,84.6701299 Z M67.9199569,90 L67.9199569,85.9480519 C68.3363245,86.5506494 68.7735104,86.9714286 69.2315147,87.2103896 C69.689519,87.4493506 70.2516152,87.5688312 70.9178033,87.5688312 C72.3542714,87.5688312 73.3015075,87.0493506 73.7595118,86.0103896 C74.0717875,85.3038961 74.2279253,84.0155844 74.2279253,82.1454545 L74.2279253,82.1454545 L74.2279253,74.7272727 C74.2279253,73.6883117 74.1966978,72.9142857 74.1342426,72.4051948 C74.0717875,71.8961039 73.9104451,71.4337662 73.6502154,71.0181818 C73.3899856,70.6025974 73.0360732,70.3064935 72.5884781,70.1298701 C72.140883,69.9532468 71.6256281,69.8649351 71.0427136,69.8649351 C70.3765255,69.8649351 69.7884063,69.9844156 69.2783561,70.2233766 C68.7683058,70.4623377 68.3155061,70.8727273 67.9199569,71.4545455 L67.9199569,71.4545455 L68.0448672,69.8961039 L63.1109117,69.8961039 L63.1109117,90 L67.9199569,90 Z M68.7006461,84.6701299 C68.1801866,84.6701299 67.9199569,84.2233766 67.9199569,83.3298701 L67.9199569,83.3298701 L67.9199569,74.1974026 C67.9199569,73.2 68.1801866,72.7012987 68.7006461,72.7012987 C69.0545585,72.7012987 69.2523331,72.8155844 69.2939698,73.0441558 C69.3356066,73.2727273 69.356425,73.6051948 69.356425,74.0415584 L69.356425,74.0415584 L69.356425,83.361039 C69.356425,83.7974026 69.3147882,84.1246753 69.2315147,84.3428571 C69.1482412,84.561039 68.971285,84.6701299 68.7006461,84.6701299 Z M80.660804,87.4753247 L80.660804,74.9142857 C80.660804,74.1038961 80.71285,73.5376623 80.8169419,73.2155844 C80.9210337,72.8935065 81.1292175,72.7324675 81.4414932,72.7324675 C81.8370424,72.7324675 82.0556353,72.9402597 82.0972721,73.3558442 C82.1389088,73.7714286 82.1597272,74.3532468 82.1597272,75.1012987 L82.1597272,87.4753247 L87,87.4753247 L87,75.3506494 C87,74.3116883 86.973977,73.4649351 86.9219311,72.8103896 C86.8698851,72.1558442 86.7501795,71.6415584 86.5628141,71.2675325 C86.3129935,70.7896104 85.922649,70.4415584 85.3917803,70.2233766 C84.8609117,70.0051948 84.241565,69.8961039 83.5337401,69.8961039 C82.867552,69.8961039 82.3262742,69.9584416 81.9099067,70.0831169 C81.4935391,70.2077922 81.0771716,70.4571429 80.660804,70.8311688 C80.660804,68.180202 78.5117708,66.0311688 75.860804,66.0311688 L75.8517588,66.0311688 L75.8517588,66.0311688 L75.8517588,87.4753247 L80.660804,87.4753247 Z" id="TuGraph" fill="#374083" fill-rule="nonzero"></path>
            <g id="Group-3-Copy" transform="translate(43.000000, 29.500000) rotate(33.000000) translate(-43.000000, -29.500000) translate(29.000000, 4.000000)" fill="url(#linearGradient-1)">
                <path d="M9.80351405,0.328122456 C13.7265207,1.0906777 16.2885728,4.8890761 15.5260175,8.81208274 C15.0862064,11.0747146 13.6365171,12.8846227 11.7343888,13.8643621 C11.2424406,14.0053481 10.7629984,14.2218861 10.311289,14.5152296 C7.83103823,16.1259233 7.12612294,19.442289 8.73681661,21.9225398 C8.83590662,22.075125 8.94145212,22.2209911 9.05286129,22.3600122 L9.07414204,22.4218221 L9.07414204,22.4218221 L9.28412412,22.6297653 C9.29939127,22.6464206 9.31474843,22.6629617 9.33019435,22.6793886 C9.45822452,22.8137829 9.57743527,22.9557845 9.68911398,23.1037886 C9.79788124,23.1707832 9.90846019,23.2351204 10.0207602,23.2967123 C11.3321345,24.2762153 13.0368524,24.6060592 14.6239366,24.1771565 C16.1716085,23.9908009 17.5769182,23.343104 18.6991141,22.3759601 L18.7876071,22.3753871 C19.9956559,21.232544 21.7186677,20.6696355 23.4755775,21.0111442 C24.9428976,21.2963624 26.1519781,22.1576283 26.9137949,23.3147023 C27.4949227,24.1697814 27.8350987,25.2022781 27.8350987,26.3142271 C27.8350987,28.1566348 26.901188,29.7809158 25.4809385,30.7394984 C24.4558516,31.8338261 23.7069023,33.2490776 23.3921978,34.8680922 C23.0868548,36.4389455 23.2323961,37.9850827 23.7353073,39.3541458 C25.0422597,40.7908062 25.6779298,42.8051132 25.2788495,44.8582032 C24.6078009,48.310449 21.2652103,50.5650549 17.8129644,49.8940063 C14.3607186,49.2229576 12.1061128,45.880367 12.7771614,42.4281212 C13.1690286,40.4121391 14.4719243,38.8045668 16.1765583,37.9509079 L16.2921426,37.8184997 C16.3724954,37.7720112 16.4520867,37.7232057 16.5308352,37.6720658 C19.0110859,36.0613722 19.7160012,32.7450065 18.1053075,30.2647557 L18.0826231,30.2308203 L18.0346231,30.0428203 L18.0004688,30.0205141 C17.9609137,29.9950641 17.9211096,29.9699678 17.8810609,29.9452296 C16.2022277,27.7265576 13.0682985,27.1509918 10.6979974,28.6902834 C10.073656,29.0957354 9.56180962,29.6092683 9.1710761,30.1903388 L9.09231641,30.1916019 C8.13655258,31.0952346 6.8468402,31.6493186 5.42771457,31.6493186 C2.48122492,31.6493186 0.0926231154,29.2607168 0.0926231154,26.3142271 C0.0926231154,24.779763 0.740432735,23.3966029 1.77748328,22.4233156 L1.7808264,22.4079178 C3.13727801,21.3013761 4.13736369,19.7088563 4.50345244,17.825493 C4.82345833,16.1792054 4.61106045,14.5574955 3.98904918,13.1520975 C1.90145996,11.5315036 0.780821757,8.82216183 1.31955376,6.05062593 C2.08210901,2.12761929 5.88050741,-0.434432788 9.80351405,0.328122456 Z" id="Combined-Shape"></path>
            </g>
        </g>
    </g>
</svg>